<svg width="161" height="75" viewBox="0 0 161 75" fill="none" xmlns="http://www.w3.org/2000/svg"><g clip-path="url(#clip0_312_33381)"><path d="M38.939 55.497l-14.27 8.237c-.416.25-.665.666-.665 1.165v4.036c0 .499.25.915.665 1.165l6.74 3.869c.416.25.915.25 1.331 0l6.74-3.87c.416-.25.665-.665.665-1.164v-12.73c0-.625-.665-1-1.206-.708zm0-9.943l-14.27 8.237c-.416.25-.665.666-.665 1.165v2.788c0 .624.665.998 1.206.707l14.27-8.237c.416-.25.665-.666.665-1.165V46.26c0-.623-.665-.998-1.206-.707zm0-9.901l-14.27 8.237c-.416.25-.665.666-.665 1.165v2.829c0 .624.665.998 1.206.707l14.27-8.237c.416-.25.665-.666.665-1.165v-2.787c0-.666-.665-1.082-1.206-.749zM14.769 9.901L.498 18.14c-.416.25-.666.665-.666 1.164v22.674c0 .623.666.998 1.206.707l14.27-8.237a1.33 1.33 0 00.666-1.165V10.609c0-.666-.666-1.04-1.207-.708zm0 39.689L3.202 56.288a.784.784 0 000 1.373l2.413 1.414c.416.25.915.25 1.331 0l8.32-4.826a1.33 1.33 0 00.666-1.165v-2.787c.042-.624-.624-.999-1.165-.707zm0-9.902L.498 47.926c-.416.25-.666.665-.666 1.164v2.788c0 .624.666.998 1.206.707l14.27-8.237a1.33 1.33 0 00.666-1.165v-2.829c0-.582-.666-.998-1.207-.666zm24.17-13.978l-14.27 8.237c-.416.25-.665.666-.665 1.165V37.9c0 .623.665.998 1.206.707l14.27-8.238c.416-.25.665-.665.665-1.164v-2.788c0-.624-.665-.998-1.206-.707zm24.212 15.85l-14.27 8.238c-.415.25-.665.665-.665 1.164v12.69c0 .623.666.998 1.207.706l14.27-8.237a1.33 1.33 0 00.665-1.165v-12.73a.782.782 0 00-1.207-.666zM49.423 14.685l2.953-1.705a.784.784 0 000-1.373l-2.953-1.706c-.541-.29-1.207.084-1.207.707v3.454c0 .582.666.956 1.207.623zm0 9.943l11.565-6.698a.784.784 0 000-1.372l-2.413-1.415a1.276 1.276 0 00-1.331 0l-8.32 4.826c-.417.25-.666.666-.666 1.165v2.787a.763.763 0 001.165.707zm13.728-2.953l-14.27 8.237a1.33 1.33 0 00-.665 1.165v2.787c0 .624.666.998 1.207.707l14.27-8.237a1.33 1.33 0 00.665-1.165v-2.787c0-.624-.666-.998-1.207-.707zm0 9.943l-14.27 8.237a1.33 1.33 0 00-.665 1.165v2.787c0 .624.666.998 1.207.707l14.27-8.237a1.33 1.33 0 00.665-1.165v-2.787c0-.624-.666-1.04-1.207-.707zM39.48 4.16L32.74.291a1.277 1.277 0 00-1.331 0l-6.74 3.87a1.326 1.326 0 00-.665 1.164v22.673c0 .624.665.999 1.206.707l14.27-8.237c.416-.25.665-.665.665-1.165V5.325c0-.5-.25-.957-.665-1.165zM14.768 59.533l-2.954 1.705a.784.784 0 000 1.373l2.954 1.706c.541.291 1.207-.083 1.207-.707v-3.453c0-.541-.666-.916-1.207-.624zM130.505 26h-16.141a1.58 1.58 0 00-1.581 1.581V46.72a1.58 1.58 0 001.581 1.581h2.329a1.58 1.58 0 001.581-1.58V31.16h8.321v15.56c0 .873.707 1.58 1.58 1.58h2.33a1.58 1.58 0 001.581-1.58V27.581c0-.832-.707-1.58-1.581-1.58zm29.122 0h-2.58c-.707 0-1.289.375-1.705.999l-5.866 9.152L143.235 27c-.457-.583-1.081-.957-1.789-.957h-2.87a1.58 1.58 0 00-1.581 1.58v19.138c0 .873.707 1.58 1.581 1.58h2.33a1.58 1.58 0 001.58-1.58V34.862l4.535 6.907c.583.79 1.331 1.206 2.08 1.206.749 0 1.498-.416 2.08-1.206l4.535-6.99v11.982c0 .873.707 1.58 1.581 1.58h2.33a1.58 1.58 0 001.58-1.58V27.624c0-.874-.707-1.623-1.58-1.623zm-62.986-1.206c-7.572 0-12.647 5.408-12.647 12.314 0 7.572 5.408 12.314 12.647 12.314s12.647-5.117 12.647-12.314c0-7.572-5.408-12.314-12.647-12.314zm0 19.553c-3.827 0-6.864-3.12-6.864-7.197 0-4.369 2.912-7.198 6.864-7.198 3.827 0 6.864 2.871 6.864 7.198 0 3.993-2.329 7.197-6.864 7.197z" fill="#fff"/></g><defs><clipPath id="clip0_312_33381"><path fill="#fff" d="M0 0h161v74.052H0z"/></clipPath></defs></svg>